<svg width="30" height="30" viewBox="0 2 15 20" fill="none" xmlns="http://www.w3.org/2000/svg">
<path fill-rule="evenodd" clip-rule="evenodd" d="M4.53107 7.375H8.13736C8.17481 7.375 8.21204 7.3774 8.24906 7.38219C9.717 7.48485 10.8569 8.70308 10.8618 10.1746V14.374C10.8564 15.9234 9.59732 17.1758 8.04787 17.1729H4.53107C2.98137 17.1758 1.72214 15.923 1.7171 14.3733V10.1746C1.72214 8.62491 2.98137 7.37211 4.53107 7.375Z" stroke="white" stroke-width="1.5" stroke-linecap="round" stroke-linejoin="round"/>
<path d="M10.8618 10.9244C11.2761 10.9244 11.6118 10.5886 11.6118 10.1744C11.6118 9.76016 11.2761 9.42437 10.8618 9.42437V10.9244ZM8.24906 10.1744H7.49906C7.49906 10.5886 7.83485 10.9244 8.24906 10.9244V10.1744ZM8.99906 7.38196C8.99906 6.96775 8.66328 6.63196 8.24906 6.63196C7.83485 6.63196 7.49906 6.96775 7.49906 7.38196H8.99906ZM7.59587 13.3502C8.01008 13.3502 8.34587 13.0144 8.34587 12.6002C8.34587 12.186 8.01008 11.8502 7.59587 11.8502V13.3502ZM3.67669 11.8502C3.26248 11.8502 2.92669 12.186 2.92669 12.6002C2.92669 13.0144 3.26248 13.3502 3.67669 13.3502V11.8502ZM5.63628 11.3906C6.05049 11.3906 6.38628 11.0548 6.38628 10.6406C6.38628 10.2264 6.05049 9.89061 5.63628 9.89061V11.3906ZM3.67669 9.89061C3.26248 9.89061 2.92669 10.2264 2.92669 10.6406C2.92669 11.0548 3.26248 11.3906 3.67669 11.3906V9.89061ZM8.24906 15.3098C8.66328 15.3098 8.99906 14.974 8.99906 14.5598C8.99906 14.1456 8.66328 13.8098 8.24906 13.8098V15.3098ZM3.67669 13.8098C3.26248 13.8098 2.92669 14.1456 2.92669 14.5598C2.92669 14.974 3.26248 15.3098 3.67669 15.3098V13.8098ZM10.8618 9.42437H8.24906V10.9244H10.8618V9.42437ZM8.99906 10.1744V7.38196H7.49906V10.1744H8.99906ZM7.59587 11.8502H3.67669V13.3502H7.59587V11.8502ZM5.63628 9.89061H3.67669V11.3906H5.63628V9.89061ZM8.24906 13.8098H3.67669V15.3098H8.24906V13.8098Z" fill="white"/>
</svg>