<svg width="30" height="30" viewBox="0 2 15 20" fill="none" xmlns="http://www.w3.org/2000/svg">
<path fill-rule="evenodd" clip-rule="evenodd" d="M4.53107 7.375H8.13736C8.17481 7.375 8.21204 7.3774 8.24906 7.38219C9.717 7.48485 10.8569 8.70308 10.8618 10.1746V14.374C10.8564 15.9234 9.59732 17.1758 8.04787 17.1729H4.53107C2.98137 17.1758 1.72214 15.923 1.7171 14.3733V10.1746C1.72214 8.62491 2.98137 7.37211 4.53107 7.375Z" stroke="#595959" stroke-width="1.5" stroke-linecap="round" stroke-linejoin="round"/>
<path d="M10.8618 10.9242C11.2761 10.9242 11.6118 10.5885 11.6118 10.1742C11.6118 9.76003 11.2761 9.42425 10.8618 9.42425V10.9242ZM8.24907 10.1742H7.49907C7.49907 10.5885 7.83485 10.9242 8.24907 10.9242V10.1742ZM8.99907 7.38184C8.99907 6.96762 8.66328 6.63184 8.24907 6.63184C7.83485 6.63184 7.49907 6.96762 7.49907 7.38184H8.99907ZM7.59587 13.3501C8.01008 13.3501 8.34587 13.0143 8.34587 12.6001C8.34587 12.1859 8.01008 11.8501 7.59587 11.8501V13.3501ZM3.6767 11.8501C3.26248 11.8501 2.9267 12.1859 2.9267 12.6001C2.9267 13.0143 3.26248 13.3501 3.6767 13.3501V11.8501ZM5.63628 11.3905C6.0505 11.3905 6.38628 11.0547 6.38628 10.6405C6.38628 10.2263 6.0505 9.89048 5.63628 9.89048V11.3905ZM3.6767 9.89048C3.26248 9.89048 2.9267 10.2263 2.9267 10.6405C2.9267 11.0547 3.26248 11.3905 3.6767 11.3905V9.89048ZM8.24907 15.3097C8.66328 15.3097 8.99907 14.9739 8.99907 14.5597C8.99907 14.1454 8.66328 13.8097 8.24907 13.8097V15.3097ZM3.6767 13.8097C3.26248 13.8097 2.9267 14.1454 2.9267 14.5597C2.9267 14.9739 3.26248 15.3097 3.6767 15.3097V13.8097ZM10.8618 9.42425H8.24907V10.9242H10.8618V9.42425ZM8.99907 10.1742V7.38184H7.49907V10.1742H8.99907ZM7.59587 11.8501H3.6767V13.3501H7.59587V11.8501ZM5.63628 9.89048H3.6767V11.3905H5.63628V9.89048ZM8.24907 13.8097H3.6767V15.3097H8.24907V13.8097Z" fill="#595959"/>
</svg>
