<svg width="25" height="25" viewBox="0 0 25 25" fill="none" xmlns="http://www.w3.org/2000/svg">
<path d="M6.76142 17.1781C6.46852 17.471 6.46852 17.9459 6.76142 18.2387C7.05431 18.5316 7.52918 18.5316 7.82208 18.2387L6.76142 17.1781ZM13.0304 13.0304C13.3233 12.7375 13.3233 12.2626 13.0304 11.9698C12.7375 11.6769 12.2626 11.6769 11.9698 11.9698L13.0304 13.0304ZM11.9698 11.9698C11.6769 12.2626 11.6769 12.7375 11.9698 13.0304C12.2626 13.3233 12.7375 13.3233 13.0304 13.0304L11.9698 11.9698ZM18.2387 7.82208C18.5316 7.52918 18.5316 7.05431 18.2387 6.76142C17.9459 6.46852 17.471 6.46852 17.1781 6.76142L18.2387 7.82208ZM13.0304 11.9698C12.7375 11.6769 12.2626 11.6769 11.9698 11.9698C11.6769 12.2626 11.6769 12.7375 11.9698 13.0304L13.0304 11.9698ZM17.1781 18.2387C17.471 18.5316 17.9459 18.5316 18.2387 18.2387C18.5316 17.9459 18.5316 17.471 18.2387 17.1781L17.1781 18.2387ZM11.9698 13.0304C12.2626 13.3233 12.7375 13.3233 13.0304 13.0304C13.3233 12.7375 13.3233 12.2626 13.0304 11.9698L11.9698 13.0304ZM7.82208 6.76142C7.52918 6.46852 7.05431 6.46852 6.76142 6.76142C6.46852 7.05431 6.46852 7.52918 6.76142 7.82208L7.82208 6.76142ZM7.82208 18.2387L13.0304 13.0304L11.9698 11.9698L6.76142 17.1781L7.82208 18.2387ZM13.0304 13.0304L18.2387 7.82208L17.1781 6.76142L11.9698 11.9698L13.0304 13.0304ZM11.9698 13.0304L17.1781 18.2387L18.2387 17.1781L13.0304 11.9698L11.9698 13.0304ZM13.0304 11.9698L7.82208 6.76142L6.76142 7.82208L11.9698 13.0304L13.0304 11.9698Z" fill="#595959"/>
</svg>
