<svg width="25" height="25" viewBox="0 0 25 25" fill="none" xmlns="http://www.w3.org/2000/svg">
<path fill-rule="evenodd" clip-rule="evenodd" d="M19.1323 16.4918L19.1386 10.4574L14.8438 6.17617C13.5477 4.88578 11.4523 4.88578 10.1563 6.17617L5.87085 10.447V16.4887C5.8743 18.316 7.35812 19.7947 9.18543 19.7918H15.8177C17.6438 19.7947 19.1271 18.3179 19.1323 16.4918Z" stroke="#595959" stroke-width="1.5" stroke-linecap="round" stroke-linejoin="round"/>
<path d="M19.8897 6.26892C19.8897 5.85471 19.5539 5.51892 19.1397 5.51892C18.7255 5.51892 18.3897 5.85471 18.3897 6.26892H19.8897ZM19.1397 10.4575H18.3897C18.3897 10.6568 18.469 10.8479 18.6102 10.9886L19.1397 10.4575ZM20.3039 12.6772C20.5972 12.9696 21.0721 12.9689 21.3646 12.6755C21.657 12.3822 21.6563 11.9073 21.3629 11.6149L20.3039 12.6772ZM6.40043 10.9782C6.69377 10.6857 6.6945 10.2109 6.40206 9.91753C6.10961 9.62419 5.63474 9.62346 5.3414 9.9159L6.40043 10.9782ZM3.63723 11.6149C3.34389 11.9073 3.34316 12.3822 3.63561 12.6755C3.92805 12.9689 4.40292 12.9696 4.69627 12.6771L3.63723 11.6149ZM13.8334 19.7918C13.8334 20.206 14.1692 20.5418 14.5834 20.5418C14.9976 20.5418 15.3334 20.206 15.3334 19.7918H13.8334ZM9.66675 19.7918C9.66675 20.206 10.0025 20.5418 10.4167 20.5418C10.831 20.5418 11.1667 20.206 11.1667 19.7918H9.66675ZM18.3897 6.26892V10.4575H19.8897V6.26892H18.3897ZM18.6102 10.9886L20.3039 12.6772L21.3629 11.6149L19.6692 9.92632L18.6102 10.9886ZM5.3414 9.9159L3.63723 11.6149L4.69627 12.6771L6.40043 10.9782L5.3414 9.9159ZM15.3334 19.7918V17.9377H13.8334V19.7918H15.3334ZM15.3334 17.9377C15.3334 16.3729 14.0649 15.1043 12.5001 15.1043V16.6043C13.2365 16.6043 13.8334 17.2013 13.8334 17.9377H15.3334ZM12.5001 15.1043C10.9353 15.1043 9.66675 16.3729 9.66675 17.9377H11.1667C11.1667 17.2013 11.7637 16.6043 12.5001 16.6043V15.1043ZM9.66675 17.9377V19.7918H11.1667V17.9377H9.66675Z" fill="#595959"/>
</svg>
