<svg width="25" height="25" viewBox="0 0 17 17" fill="none" xmlns="http://www.w3.org/2000/svg">
<path fill-rule="evenodd" clip-rule="evenodd" d="M13.01 11.2142L13.0142 7.11085L10.0938 4.1996C9.21242 3.32214 7.78759 3.32214 6.90625 4.1996L3.99217 7.10377V11.2121C3.99451 12.4547 5.00351 13.4602 6.24608 13.4582H10.756C11.9978 13.4602 13.0064 12.456 13.01 11.2142Z" stroke="#D4D4D4" stroke-width="1.5" stroke-linecap="round" stroke-linejoin="round"/>
<path d="M13.7649 4.2627C13.7649 3.84848 13.4291 3.5127 13.0149 3.5127C12.6007 3.5127 12.2649 3.84848 12.2649 4.2627H13.7649ZM13.0149 7.1109H12.2649C12.2649 7.31022 12.3443 7.50133 12.4854 7.64205L13.0149 7.1109ZM13.6372 8.79026C13.9305 9.0827 14.4054 9.08197 14.6978 8.78863C14.9903 8.49528 14.9895 8.02041 14.6962 7.72797L13.6372 8.79026ZM4.52169 7.63496C4.81503 7.34252 4.81575 6.86764 4.52331 6.5743C4.23086 6.28096 3.75599 6.28023 3.46265 6.57268L4.52169 7.63496ZM2.30382 7.72797C2.01048 8.02042 2.00975 8.49529 2.30219 8.78863C2.59464 9.08197 3.06951 9.0827 3.36285 8.79025L2.30382 7.72797ZM9.16667 13.4583C9.16667 13.8725 9.50245 14.2083 9.91667 14.2083C10.3309 14.2083 10.6667 13.8725 10.6667 13.4583H9.16667ZM6.33333 13.4583C6.33333 13.8725 6.66912 14.2083 7.08333 14.2083C7.49755 14.2083 7.83333 13.8725 7.83333 13.4583H6.33333ZM12.2649 4.2627V7.1109H13.7649V4.2627H12.2649ZM12.4854 7.64205L13.6372 8.79026L14.6962 7.72797L13.5444 6.57976L12.4854 7.64205ZM3.46265 6.57268L2.30382 7.72797L3.36285 8.79025L4.52169 7.63496L3.46265 6.57268ZM10.6667 13.4583V12.1974H9.16667V13.4583H10.6667ZM10.6667 12.1974C10.6667 11.0008 9.69662 10.0308 8.5 10.0308V11.5308C8.86819 11.5308 9.16667 11.8293 9.16667 12.1974H10.6667ZM8.5 10.0308C7.30338 10.0308 6.33333 11.0008 6.33333 12.1974H7.83333C7.83333 11.8293 8.13181 11.5308 8.5 11.5308V10.0308ZM6.33333 12.1974V13.4583H7.83333V12.1974H6.33333Z" fill="#D4D4D4"/>
</svg>
