<svg width="25" height="25" viewBox="0 0 25 25" fill="none" xmlns="http://www.w3.org/2000/svg">
<path d="M18.3309 10.6217C18.4449 11.0199 18.8601 11.2503 19.2584 11.1363C19.6566 11.0223 19.887 10.6071 19.773 10.2089L18.3309 10.6217ZM17.2811 7.34233L17.8212 6.82197L17.8207 6.82137L17.2811 7.34233ZM13.6572 5.34754L13.8087 4.61301L13.8073 4.61273L13.6572 5.34754ZM9.57279 5.76421L9.27736 5.07485L9.27662 5.07516L9.57279 5.76421ZM6.39987 8.44754L5.76957 8.04108L5.76956 8.04109L6.39987 8.44754ZM7.27904 17.6548L7.82138 17.1368L7.82105 17.1364L7.27904 17.6548ZM16.2051 18.5621L16.6321 19.1787L16.6323 19.1786L16.2051 18.5621ZM19.5059 15.567C19.6593 15.1822 19.4718 14.746 19.087 14.5925C18.7023 14.4391 18.266 14.6267 18.1126 15.0114L19.5059 15.567ZM18.3261 10.2266C18.2219 10.6275 18.4624 11.037 18.8633 11.1411C19.2642 11.2453 19.6737 11.0048 19.7778 10.6039L18.3261 10.2266ZM20.5174 7.75806C20.6216 7.35717 20.3811 6.94772 19.9802 6.84353C19.5793 6.73934 19.1698 6.97988 19.0657 7.38077L20.5174 7.75806ZM18.8522 11.1382C19.2514 11.2485 19.6645 11.0143 19.7749 10.615C19.8852 10.2158 19.651 9.80267 19.2517 9.69234L18.8522 11.1382ZM16.4923 8.92984C16.0931 8.81952 15.68 9.05374 15.5697 9.45299C15.4593 9.85224 15.6936 10.2653 16.0928 10.3757L16.4923 8.92984ZM19.773 10.2089C19.409 8.93733 18.7389 7.77443 17.8212 6.82197L16.741 7.8627C17.4885 8.63857 18.0344 9.58587 18.3309 10.6217L19.773 10.2089ZM17.8207 6.82137C16.7361 5.69818 15.3378 4.92849 13.8087 4.61301L13.5056 6.08207C14.739 6.33653 15.8668 6.95735 16.7416 7.8633L17.8207 6.82137ZM13.8073 4.61273C12.2855 4.30179 10.705 4.46302 9.27736 5.07485L9.86822 6.45357C11.015 5.9621 12.2846 5.83259 13.507 6.08236L13.8073 4.61273ZM9.27662 5.07516C7.83876 5.69319 6.61776 6.72579 5.76957 8.04108L7.03018 8.85401C7.71675 7.78935 8.70508 6.95352 9.86896 6.45326L9.27662 5.07516ZM5.76956 8.04109C3.70958 11.2357 4.10972 15.4262 6.73703 18.1732L7.82105 17.1364C5.67336 14.8909 5.34627 11.4654 7.03019 8.85399L5.76956 8.04109ZM6.7367 18.1729C9.3386 20.8968 13.5353 21.3234 16.6321 19.1787L15.7781 17.9456C13.288 19.67 9.91352 19.327 7.82138 17.1368L6.7367 18.1729ZM16.6323 19.1786C17.9242 18.2833 18.9237 17.0271 19.5059 15.567L18.1126 15.0114C17.6396 16.1977 16.8276 17.2183 15.7779 17.9457L16.6323 19.1786ZM19.7778 10.6039L20.5174 7.75806L19.0657 7.38077L18.3261 10.2266L19.7778 10.6039ZM19.2517 9.69234L16.4923 8.92984L16.0928 10.3757L18.8522 11.1382L19.2517 9.69234Z" fill="#595959"/>
</svg>
