<svg width="176" height="52" viewBox="0 0 176 52" fill="none" xmlns="http://www.w3.org/2000/svg">
<g filter="url(#filter0_d_183_85)">
<rect x="4" width="168" height="44" rx="22" fill="white"/>
</g>
<path d="M77.5373 16.744V18.904C77.5373 21.784 76.3213 24.632 73.7453 25.752L75.0093 27.512C77.9533 26.152 79.2653 22.712 79.2653 18.904V16.744H77.5373ZM77.9533 16.744V18.904C77.9533 22.552 79.2653 25.848 82.1293 27.16L83.3773 25.448C80.8493 24.36 79.6813 21.64 79.6813 18.904V16.744H77.9533ZM84.0813 15.592V30.456H86.2253V15.592H84.0813ZM91.936 17.128V18.056C91.936 19.912 90.896 21.832 88.416 22.632L89.52 24.28C92.352 23.368 93.68 20.856 93.68 18.056V17.128H91.936ZM92.368 17.128V18.056C92.368 20.712 93.648 23.128 96.416 24.024L97.504 22.376C95.104 21.608 94.096 19.8 94.096 18.056V17.128H92.368ZM88.992 16.472V18.168H96.992V16.472H88.992ZM98.176 15.608V24.536H100.304V15.608H98.176ZM99.712 19.192V20.936H102.272V19.192H99.712ZM90.416 25.176V26.888H98.176V30.424H100.304V25.176H90.416Z" fill="#4A4A4A"/>
<defs>
<filter id="filter0_d_183_85" x="0" y="0" width="176" height="52" filterUnits="userSpaceOnUse" color-interpolation-filters="sRGB">
<feFlood flood-opacity="0" result="BackgroundImageFix"/>
<feColorMatrix in="SourceAlpha" type="matrix" values="0 0 0 0 0 0 0 0 0 0 0 0 0 0 0 0 0 0 127 0" result="hardAlpha"/>
<feOffset dy="4"/>
<feGaussianBlur stdDeviation="2"/>
<feComposite in2="hardAlpha" operator="out"/>
<feColorMatrix type="matrix" values="0 0 0 0 0 0 0 0 0 0 0 0 0 0 0 0 0 0 0.25 0"/>
<feBlend mode="normal" in2="BackgroundImageFix" result="effect1_dropShadow_183_85"/>
<feBlend mode="normal" in="SourceGraphic" in2="effect1_dropShadow_183_85" result="shape"/>
</filter>
</defs>
</svg>
